<svg width="120" height="20" viewBox="0 0 120 20" fill="none" xmlns="http://www.w3.org/2000/svg">
<path d="M2.51164 18.5561L0 0.515352H4.48289L6.05989 15.4673H6.70564L8.99976 0.515352H16.2458L18.5399 15.4673H19.1857L20.7627 0.515352H25.2456L22.7339 18.5561H15.2398L12.9457 3.60407H12.2999L10.0058 18.5561H2.51164ZM35.0746 19.0646C33.3039 19.0646 31.7439 18.6815 30.3946 17.9186C29.0453 17.1558 27.9917 16.0776 27.2372 14.6807C26.4827 13.2873 26.1088 11.6429 26.1088 9.751V9.31363C26.1088 7.42174 26.4793 5.78076 27.2202 4.38388C27.9611 2.9904 29.0011 1.90884 30.3402 1.14598C31.6793 0.383123 33.2325 0 35.0032 0C36.774 0 38.266 0.393295 39.5575 1.18327C40.849 1.97325 41.8516 3.0616 42.5688 4.45847C43.2859 5.85195 43.6461 7.4726 43.6461 9.31363V10.8766H30.7005C30.7481 12.1142 31.2035 13.1211 32.0634 13.8975C32.9232 14.674 33.9768 15.0605 35.2208 15.0605C36.4647 15.0605 37.4197 14.7825 38.0179 14.223C38.6161 13.667 39.0681 13.0465 39.3808 12.3684L43.0752 14.3315C42.7387 14.9622 42.2561 15.647 41.6239 16.3862C40.9884 17.1253 40.1489 17.7559 39.0953 18.278C38.0417 18.8002 36.706 19.0612 35.078 19.0612H35.0746V19.0646ZM30.7345 7.45904H39.0545C38.9593 6.41816 38.5447 5.58072 37.8174 4.95009C37.0866 4.31946 36.1384 4.00415 34.9659 4.00415C33.7933 4.00415 32.7771 4.31946 32.06 4.95009C31.3428 5.58072 30.901 6.41816 30.7345 7.45904ZM77.4326 19.0646C76.1649 19.0646 75.0298 18.8409 74.0271 18.3933C73.0245 17.9458 72.2292 17.2914 71.6413 16.4302C71.0567 15.569 70.7644 14.5214 70.7644 13.2839C70.7644 12.0463 71.0567 11.0089 71.6413 10.1748C72.2258 9.33736 73.0415 8.70673 74.0815 8.28292C75.1215 7.85911 76.3111 7.64551 77.6502 7.64551H82.5273V6.62837C82.5273 5.78075 82.2656 5.08232 81.7388 4.53645C81.212 3.99059 80.3759 3.71935 79.2272 3.71935C78.0784 3.71935 77.2661 3.98041 76.7155 4.50255C76.1649 5.02468 75.8081 5.69599 75.6381 6.51988L71.4781 5.10266C71.7636 4.18045 72.2258 3.33961 72.858 2.57337C73.4901 1.81051 74.3398 1.19006 75.4036 0.71878C76.4674 0.247504 77.7657 0.0101714 79.2951 0.0101714C81.6368 0.0101714 83.4925 0.603504 84.8554 1.79356C86.2183 2.98362 86.898 4.70258 86.898 6.95725V13.6873C86.898 14.4163 87.2311 14.7791 87.9007 14.7791H88.8353V18.5628H86.3237C85.44 18.5628 84.7093 18.3458 84.1349 17.9085C83.5605 17.4711 83.275 16.8913 83.275 16.1624V16.1251H82.5953C82.5001 16.4167 82.2826 16.7998 81.9495 17.2711C81.6131 17.7423 81.0896 18.1628 80.3725 18.5255C79.6554 18.8883 78.6732 19.0714 77.4326 19.0714V19.0646ZM78.2211 15.3554C79.4889 15.3554 80.5221 14.9994 81.3242 14.2807C82.1263 13.5653 82.5239 12.6126 82.5239 11.4259V11.0631H77.9696C77.1336 11.0631 76.4742 11.2462 75.9984 11.609C75.5192 11.9718 75.2813 12.4837 75.2813 13.1381C75.2813 13.7924 75.5328 14.3281 76.0358 14.7384C76.5388 15.152 77.2661 15.3554 78.2245 15.3554H78.2211ZM90.2084 18.5561V0.515352H94.6539V2.55303H95.2996C95.5613 1.82407 95.9998 1.29177 96.6081 0.952723C97.2165 0.613675 97.9302 0.444152 98.7425 0.444152H100.894V4.5195H98.6711C97.5224 4.5195 96.5775 4.82803 95.8366 5.44849C95.0957 6.06555 94.7252 7.01828 94.7252 8.30327V18.5628H90.205V18.5561H90.2084ZM102.257 18.5561V0.440761H106.777V7.17085H107.423L113.306 0.515352H119.189L110.978 9.24582L119.478 18.5594H113.67L107.43 11.392H106.784V18.5594H102.257V18.5561ZM64.6637 4.19062V18.5561H69.184V0.511961H45.512V18.5561H50.0289V4.19062H55.0896V18.5561H59.6064V4.19062H64.6637Z" fill="#E0E0E0"/>
</svg>
